<?xml version="1.0" standalone="no"?>
<!DOCTYPE svg PUBLIC "-//W3C//DTD SVG 20010904//EN"
 "http://www.w3.org/TR/2001/REC-SVG-20010904/DTD/svg10.dtd">
<svg version="1.0" xmlns="http://www.w3.org/2000/svg"
 width="64.000000pt" height="64.000000pt" viewBox="0 0 64.000000 64.000000"
 preserveAspectRatio="xMidYMid meet">

<g transform="translate(0.000000,64.000000) scale(0.100000,-0.100000)"
fill="#000000" stroke="none">
<path d="M312 493 c-172 -80 -312 -149 -312 -152 0 -4 50 -31 111 -61 l111
-55 56 -113 c31 -61 59 -112 63 -112 3 0 71 138 149 308 79 169 145 310 147
314 12 25 -48 1 -325 -129z m89 -77 l-174 -174 -93 46 c-52 25 -90 50 -86 54
7 7 511 246 522 247 3 1 -73 -77 -169 -173z m186 147 c-3 -5 -51 -107 -107
-228 -56 -121 -111 -238 -122 -260 l-21 -39 -48 94 -48 95 172 173 c159 159
186 185 174 165z"/>
</g>
</svg>
